<svg xmlns="http://www.w3.org/2000/svg" viewBox="0 0 880 520" width="880" height="520" font-family="system-ui, -apple-system, sans-serif">
    <rect width="880" height="520" fill="white"/>
    <text x="70" y="28" font-size="16" font-weight="700" fill="#111827">Prompt caching: actual vs counterfactual cost per sweep</text>
    <text x="70" y="46" font-size="12" fill="#6b7280">Four Claude Sonnet batch sweeps after pass 5 caching fix · runs/stats.json</text>
    <line x1="70" y1="430" x2="680" y2="430" stroke="#e5e7eb" stroke-width="1"/>
    <line x1="70" y1="368.3333333333333" x2="680" y2="368.3333333333333" stroke="#e5e7eb" stroke-width="1"/>
    <line x1="70" y1="306.6666666666667" x2="680" y2="306.6666666666667" stroke="#e5e7eb" stroke-width="1"/>
    <line x1="70" y1="245" x2="680" y2="245" stroke="#e5e7eb" stroke-width="1"/>
    <line x1="70" y1="183.33333333333334" x2="680" y2="183.33333333333334" stroke="#e5e7eb" stroke-width="1"/>
    <line x1="70" y1="121.66666666666663" x2="680" y2="121.66666666666663" stroke="#e5e7eb" stroke-width="1"/>
    <line x1="70" y1="60" x2="680" y2="60" stroke="#e5e7eb" stroke-width="1"/>
    <line x1="70" y1="60" x2="70" y2="430" stroke="#374151" stroke-width="1"/>
    <line x1="70" y1="430" x2="680" y2="430" stroke="#374151" stroke-width="1"/>
    <text x="62" y="434" text-anchor="end" font-size="11" fill="#374151">$0.00</text>
    <text x="62" y="372.3333333333333" text-anchor="end" font-size="11" fill="#374151">$0.45</text>
    <text x="62" y="310.6666666666667" text-anchor="end" font-size="11" fill="#374151">$0.89</text>
    <text x="62" y="249" text-anchor="end" font-size="11" fill="#374151">$1.34</text>
    <text x="62" y="187.33333333333334" text-anchor="end" font-size="11" fill="#374151">$1.79</text>
    <text x="62" y="125.66666666666663" text-anchor="end" font-size="11" fill="#374151">$2.23</text>
    <text x="62" y="64" text-anchor="end" font-size="11" fill="#374151">$2.68</text>
    <text transform="translate(20 245) rotate(-90)" text-anchor="middle" font-size="12" fill="#374151">Cost per sweep (USD, batch pricing)</text>
    <rect x="150.25" y="268.1308456715059" width="40" height="161.86915432849412" fill="#9ca3af" rx="2"/>
    <rect x="102.25" y="316.25086501582626" width="40" height="113.74913498417374" fill="#10b981" rx="2"/>
    <text x="122.25" y="310.25086501582626" text-anchor="middle" font-size="11" fill="#065f46" font-weight="600">$0.82</text>
    <text x="170.25" y="262.1308456715059" text-anchor="middle" font-size="11" fill="#374151">$1.17</text>
    <text x="146.25" y="448" text-anchor="middle" font-size="11" fill="#111827">Stephen Wolfram's research progr…</text>
    <text x="146.25" y="464" text-anchor="middle" font-size="10" fill="#6b7280">4× standard</text>
    <text x="146.25" y="480" text-anchor="middle" font-size="11" fill="#047857" font-weight="600">−30%</text>
    <rect x="302.75" y="258.8745507534911" width="40" height="171.12544924650888" fill="#9ca3af" rx="2"/>
    <rect x="254.75" y="300.8475461428927" width="40" height="129.15245385710728" fill="#10b981" rx="2"/>
    <text x="274.75" y="294.8475461428927" text-anchor="middle" font-size="11" fill="#065f46" font-weight="600">$0.94</text>
    <text x="322.75" y="252.87455075349112" text-anchor="middle" font-size="11" fill="#374151">$1.24</text>
    <text x="298.75" y="448" text-anchor="middle" font-size="11" fill="#111827">AI transformation in financial s…</text>
    <text x="298.75" y="464" text-anchor="middle" font-size="10" fill="#6b7280">5× standard</text>
    <text x="298.75" y="480" text-anchor="middle" font-size="11" fill="#047857" font-weight="600">−25%</text>
    <rect x="455.25" y="195.83489269768253" width="40" height="234.16510730231747" fill="#9ca3af" rx="2"/>
    <rect x="407.25" y="264.71874343955017" width="40" height="165.28125656044983" fill="#10b981" rx="2"/>
    <text x="427.25" y="258.71874343955017" text-anchor="middle" font-size="11" fill="#065f46" font-weight="600">$1.20</text>
    <text x="475.25" y="189.83489269768253" text-anchor="middle" font-size="11" fill="#374151">$1.70</text>
    <text x="451.25" y="448" text-anchor="middle" font-size="11" fill="#111827">End-to-end AI transformation app…</text>
    <text x="451.25" y="464" text-anchor="middle" font-size="10" fill="#6b7280">5× standard</text>
    <text x="451.25" y="480" text-anchor="middle" font-size="11" fill="#047857" font-weight="600">−29%</text>
    <rect x="607.75" y="108.26086956521738" width="40" height="321.7391304347826" fill="#9ca3af" rx="2"/>
    <rect x="559.75" y="222.2410350172867" width="40" height="207.7589649827133" fill="#10b981" rx="2"/>
    <text x="579.75" y="216.2410350172867" text-anchor="middle" font-size="11" fill="#065f46" font-weight="600">$1.51</text>
    <text x="627.75" y="102.26086956521738" text-anchor="middle" font-size="11" fill="#374151">$2.33</text>
    <text x="603.75" y="448" text-anchor="middle" font-size="11" fill="#111827">End-to-end AI transformation pro…</text>
    <text x="603.75" y="464" text-anchor="middle" font-size="10" fill="#6b7280">5× deep</text>
    <text x="603.75" y="480" text-anchor="middle" font-size="11" fill="#047857" font-weight="600">−35%</text>
    
    <g font-size="12" fill="#111827">
      <rect x="710" y="60" width="14" height="14" fill="#10b981" rx="2"/>
      <text x="732" y="72">with caching (actual)</text>
      <rect x="710" y="84" width="14" height="14" fill="#9ca3af" rx="2"/>
      <text x="732" y="96">no caching (counterfactual)</text>
      <text x="710" y="138" font-size="11" fill="#6b7280">Totals:</text>
      <text x="710" y="156" font-size="13" font-weight="600">actual $4.46</text>
      <text x="710" y="174" font-size="13" fill="#6b7280">no-cache $6.44</text>
      <text x="710" y="198" font-size="14" fill="#047857" font-weight="700">saved $1.98 (31%)</text>
    </g>
  
  </svg>